<?xml version="1.0" encoding="UTF-8"?>
<svg version="1.1" viewBox="0 0 3.2149999 3.0355513" xmlns="http://www.w3.org/2000/svg">
   <path class="path-letter path-letter-A" d="m 1.4033687,5e-7 c 0.0882,0 0.1516899,0.042333 0.1834399,0.1269997 l 0.80433,2.3001061 c 0.0388,0.1128887 -0.007,0.1834441 -0.13052,0.1834441 h -0.37748 c -0.0917,0 -0.15169,-0.042333 -0.17991,-0.1305275 L 1.5938686,2.1589958 H 0.81775865 l -0.10936,0.3210271 c -0.0318,0.088194 -0.0917,0.1305275 -0.18345,0.1305275 h -0.381 c -0.12347,0 -0.16933,-0.070555 -0.13052,-0.1834441 l 0.80786,-2.3001061 C 0.85298865,0.0423342 0.91298865,5e-7 1.0011987,5e-7 Z m 0.0423,1.580441 -0.24342,-0.7231929 -0.22225005,0.7231929 z"/>
   <path class="path-letter path-letter-B" d="M 0.1587505,2.6105504 C 0.0529205,2.6105504 5e-7,2.5576334 5e-7,2.4518007 V 0.1587502 C 5e-7,0.0529171 0.0529005,5e-7 0.1587505,5e-7 h 0.98072 c 0.22225,0 0.41275,0.067028 0.56444,0.1975551 0.0564,0.052917 0.12348,0.1128887 0.17286,0.2046107 0.0494,0.091722 0.0847,0.2116662 0.0847,0.3704159 v 0.00353 c 0,0.1093609 -0.0353,0.2116662 -0.0811,0.2928049 -0.0459,0.084666 -0.10936,0.1446386 -0.16228,0.1622775 0.0459,0.010583 0.13759,0.056444 0.22225,0.1516941 0.0847,0.09525 0.15523,0.229305 0.16934,0.4021658 0.004,0.098777 -0.007,0.2222495 -0.0565,0.3457214 -0.0494,0.1234697 -0.13405,0.2434139 -0.25047,0.3316081 -0.11642,0.088194 -0.27517,0.1481664 -0.47625,0.1481664 z m 0.47625,-2.0178845 v 0.4374435 h 0.46919 c 0.0529,0 0.11289,-0.017639 0.15875,-0.052917 0.0423,-0.035278 0.0776,-0.084666 0.0776,-0.1552219 0,-0.1164164 -0.06,-0.229305 -0.20108,-0.229305 z m 0,0.9771923 v 0.4374435 h 0.57855 c 0.127,0 0.22931,-0.067028 0.22931,-0.2187218 0,-0.1516941 -0.0952,-0.2187217 -0.25047,-0.2187217 z"/>
   <path class="path-letter path-letter-C" d="m 1.3723005,2.7446056 c -0.37747,0 -0.71966,-0.1516941 -0.97013,-0.4021658 C 0.1516905,2.0919681 5e-7,1.7497744 5e-7,1.372303 5e-7,0.9913039 0.1516905,0.6526379 0.4021705,0.4021663 0.6526405,0.1516946 0.9948305,5e-7 1.3723005,5e-7 c 0.36689,0 0.70908,0.1411108 0.96661,0.3951102 0.0741,0.074083 0.0635,0.1552219 -0.0212,0.2222495 l -0.27869,0.2187218 c -0.0811,0.067028 -0.14111,0.056444 -0.22225,-0.010583 -0.127,-0.1058331 -0.27517,-0.1587497 -0.4445,-0.1587497 -0.19403,0 -0.37042,0.081139 -0.49742,0.2081385 -0.127,0.1269997 -0.20813,0.3033882 -0.20813,0.4974155 0,0.1940274 0.0811,0.3704159 0.20813,0.4974156 0.127,0.1269997 0.30339,0.2046107 0.49742,0.2046107 0.16228,0 0.30692,-0.049389 0.43039,-0.1481664 0.0811,-0.059972 0.14464,-0.074083 0.22578,-0.00706 l 0.27163,0.229305 c 0.0811,0.067028 0.0917,0.1516942 0.0106,0.2257773 -0.254,0.2398884 -0.58561,0.3704159 -0.93838,0.3704159 z"/>
   <path class="path-letter path-letter-D" d="M 0.1587505,2.6105504 C 0.0529205,2.6105504 5e-7,2.5576334 5e-7,2.4518007 V 0.1587502 C 5e-7,0.0529171 0.0529005,5e-7 0.1587505,5e-7 h 0.83255 c 0.33867,0 0.65617,0.1411108 0.89606,0.398638 0.2293,0.2504717 0.35983,0.5714988 0.35983,0.9066369 0,0.352777 -0.14464,0.6808597 -0.37394,0.9172202 -0.22931,0.2398884 -0.54681,0.3880548 -0.88547,0.3880548 z m 0.508,-1.9438013 v 1.2770527 h 0.32103 c 0.15522,0 0.30338,-0.077611 0.41274,-0.1940273 0.10937,-0.1128887 0.17639,-0.2751661 0.17639,-0.4444991 0,-0.1693329 -0.067,-0.3316103 -0.17286,-0.4480268 -0.10583,-0.1128886 -0.25752,-0.1904995 -0.41275,-0.1904995 z"/>
   <path class="path-letter path-letter-E" d="m 1.8309105,2.4518007 c 0,0.1058331 -0.0529,0.1587497 -0.15875,0.1587497 h -1.51341 C 0.0529205,2.6105504 5e-7,2.5576334 5e-7,2.4518007 V 0.1587502 C 5e-7,0.0529171 0.0529005,5e-7 0.1587505,5e-7 h 1.51341 c 0.10584,0 0.15875,0.052917 0.15875,0.1587497 v 0.3492492 c 0,0.1058331 -0.0529,0.1587497 -0.15875,0.1587497 h -1.00541 v 0.3280826 h 0.74083 c 0.10583,0 0.15875,0.052916 0.15875,0.1587496 v 0.2998605 c 0,0.1058331 -0.0529,0.1587496 -0.15875,0.1587496 h -0.74083 v 0.3316104 h 1.00541 c 0.10584,0 0.15875,0.052917 0.15875,0.1587497 z"/>
   <path class="path-letter path-letter-F" d="m 0.6667505,1.6121914 v 0.8396093 c 0,0.1058331 -0.0529,0.1587497 -0.15875,0.1587497 h -0.34925 C 0.0529205,2.6105504 5e-7,2.5576334 5e-7,2.4518007 V 0.1587502 C 5e-7,0.0529171 0.0529005,5e-7 0.1587505,5e-7 h 1.46402 c 0.10584,0 0.15875,0.052917 0.15875,0.1587497 v 0.3492492 c 0,0.1058331 -0.0529,0.1587497 -0.15875,0.1587497 h -0.95602 v 0.3280826 h 0.69144 c 0.10583,0 0.15875,0.052916 0.15875,0.1587496 v 0.2998605 c 0,0.1058331 -0.0529,0.1587496 -0.15875,0.1587496 z"/>
   <path class="path-letter path-letter-G" d="m 1.3687805,2.7340222 c -0.37748,0 -0.71967,-0.1552218 -0.96661,-0.4021657 C 0.1552205,2.0849126 5e-7,1.7462466 5e-7,1.3687752 5e-7,0.9913038 0.1552205,0.6455824 0.4021705,0.3986385 0.6491105,0.1516946 0.9913005,5e-7 1.3687805,5e-7 c 0.36688,0 0.70555,0.137583 0.95955,0.3915824 0.0741,0.081139 0.0635,0.1587497 -0.0176,0.2257773 l -0.27873,0.2187218 c -0.0811,0.067028 -0.14112,0.056444 -0.22225,-0.010583 -0.127,-0.1058332 -0.27517,-0.1587497 -0.44098,-0.1587497 -0.19402,0 -0.37041,0.077611 -0.49741,0.2046107 -0.127,0.1269997 -0.20461,0.3033882 -0.20461,0.4974155 0,0.1940274 0.0776,0.3704159 0.20461,0.5044712 0.127,0.1340552 0.30339,0.2222495 0.49741,0.2222495 0.1517,0 0.26459,-0.03175 0.34925,-0.074083 0.0811,-0.038806 0.13053,-0.088194 0.15875,-0.1199442 V 1.7321356 h -0.43391 c -0.10584,0 -0.15875,-0.052917 -0.15875,-0.1587497 V 1.3546642 c 0,-0.1058331 0.0529,-0.1587497 0.15875,-0.1587497 h 0.94191 c 0.10584,0 0.15875,0.052917 0.15875,0.1587497 v 0.6385263 c 0,0.074083 -0.0141,0.1305275 -0.0423,0.1763885 -0.22577,0.3421937 -0.59619,0.5644432 -1.13241,0.5644432 z"/>
   <path class="path-letter path-letter-H" d="m 2.0566905,2.4518007 c 0,0.1058331 -0.0529,0.1587497 -0.15875,0.1587497 h -0.34925 c -0.10583,0 -0.15875,-0.052917 -0.15875,-0.1587497 V 1.6404136 h -0.72319 v 0.8113871 c 0,0.1058331 -0.0529,0.1587497 -0.15875,0.1587497 h -0.34925 C 0.0529205,2.6105504 5e-7,2.5576334 5e-7,2.4518007 V 0.1587502 C 5e-7,0.0529171 0.0529005,5e-7 0.1587505,5e-7 h 0.34925 c 0.10583,0 0.15875,0.052917 0.15875,0.1587497 v 0.8113871 h 0.72319 V 0.1587502 c 0,-0.1058331 0.0529,-0.1587497 0.15875,-0.1587497 h 0.34925 c 0.10583,0 0.15875,0.052917 0.15875,0.1587497 z"/>
   <path class="path-letter path-letter-I" d="m 0.5080005,5e-7 c 0.10583,0 0.15875,0.052917 0.15875,0.1587497 v 2.2930505 c 0,0.1058331 -0.0529,0.1587497 -0.15875,0.1587497 h -0.34925 C 0.0529205,2.6105504 5e-7,2.5576334 5e-7,2.4518007 V 0.1587502 C 5e-7,0.0529171 0.0529005,5e-7 0.1587505,5e-7 Z"/>
   <path class="path-letter path-letter-J" d="m 0.39629086,1.7356636 c 0.0847,-0.052917 0.15522,-0.03175 0.21519,0.056444 0.067,0.1023053 0.16581,0.2046106 0.28928,0.2046106 0.0847,0 0.16933004,-0.014111 0.23283004,-0.074083 0.0635,-0.056444 0.10584,-0.169333 0.10584,-0.3668881 V 0.1587501 C 1.2394309,0.052917 1.2923309,5e-7 1.3981809,5e-7 h 0.35277 c 0.10584,0 0.15875,0.052916 0.15875,0.1587496 V 1.636886 c 0,0.2222495 -0.0564,0.4797767 -0.21166,0.6843874 -0.15523,0.2046106 -0.4057,0.352777 -0.79728004,0.352777 -0.26811,0 -0.49036,-0.088194 -0.66322,-0.261055 -0.0882,-0.088194 -0.15875,-0.1975551 -0.21167,-0.2857494 -0.0529,-0.088194 -0.0212,-0.1622774 0.0635,-0.2151939 z"/>
   <path class="path-letter path-letter-K" d="m 1.0195305,1.280581 0.98072,1.135942 c 0.0952,0.1023053 0.0494,0.1940274 -0.0882,0.1940274 h -0.45156 c -0.0741,0 -0.14111,-0.03175 -0.19403,-0.091722 l -0.59971,-0.7090818 v 0.6420541 c 0,0.1058331 -0.0529,0.1587497 -0.15875,0.1587497 h -0.34925 C 0.0529205,2.6105504 5e-7,2.5576334 5e-7,2.4518007 V 0.1587502 C 5e-7,0.0529171 0.0529005,5e-7 0.1587505,5e-7 h 0.34925 c 0.10583,0 0.15875,0.052917 0.15875,0.1587497 v 0.6420541 l 0.61383,-0.7090818 c 0.0564,-0.067028 0.11289,-0.088194 0.19403,-0.088194 h 0.38453 c 0.13758,0 0.17991,0.091722 0.0917,0.1940273 z"/>
   <path class="path-letter path-letter-L" d="m 0.6667505,1.9438018 h 0.93486 c 0.10583,0 0.15875,0.052917 0.15875,0.1587497 v 0.3492492 c 0,0.1058331 -0.0529,0.1587497 -0.15875,0.1587497 h -1.44286 C 0.0529205,2.6105504 5e-7,2.5576334 5e-7,2.4518007 V 0.1587502 C 5e-7,0.0529171 0.0529005,5e-7 0.1587505,5e-7 h 0.34925 c 0.10583,0 0.15875,0.052917 0.15875,0.1587497 z"/>
   <path class="path-letter path-letter-M" d="M 5e-7,0.1587502 C 5e-7,0.0529171 0.0529005,5e-7 0.1587505,5e-7 h 0.29633 c 0.0882,0 0.14817,0.038806 0.18697,0.1199442 l 0.67734,1.4640246 0.68086,-1.4640246 C 2.0390505,0.0388057 2.0990505,5e-7 2.1872205,5e-7 h 0.29633 c 0.10583,0 0.15875,0.052917 0.15875,0.1587497 v 2.2930505 c 0,0.1058331 -0.0529,0.1587497 -0.15875,0.1587497 h -0.34925 c -0.10583,0 -0.15875,-0.052917 -0.15875,-0.1587497 V 1.541636 l -0.39864,0.9454424 c -0.0353,0.081139 -0.0988,0.123472 -0.18697,0.123472 h -0.14111 c -0.0882,0 -0.15169,-0.042333 -0.18697,-0.123472 l -0.39511,-0.9419146 v 0.9066369 c 0,0.1058331 -0.0529,0.1587497 -0.15875,0.1587497 h -0.34925 c -0.10583,0 -0.15875,-0.052917 -0.15875,-0.1587497 z"/>
   <path class="path-letter path-letter-N" d="M 0.1587505,2.6105504 C 0.0529205,2.6105504 5e-7,2.5576334 5e-7,2.4518007 V 0.1587502 C 5e-7,0.0529171 0.0529005,5e-7 0.1587505,5e-7 h 0.30339 c 0.0811,0 0.14816,0.035278 0.19403,0.1023054 l 0.81491,1.1818029 V 0.1587502 c 0,-0.1058331 0.0529,-0.1587497 0.15875,-0.1587497 h 0.34925 c 0.10583,0 0.15875,0.052917 0.15875,0.1587497 v 2.2930505 c 0,0.1058331 -0.0529,0.1587497 -0.15875,0.1587497 h -0.30339 c -0.0811,0 -0.14817,-0.035278 -0.19403,-0.1023054 l -0.81491,-1.1923863 v 1.135942 c 0,0.1058331 -0.0529,0.1587497 -0.15875,0.1587497 z"/>
   <path class="path-letter path-letter-O" d="m 1.3723005,2.7410778 c -0.381,0 -0.71966,-0.1552219 -0.97013,-0.4021658 C 0.1516905,2.0919681 5e-7,1.7497744 5e-7,1.372303 5e-7,0.9913039 0.1516905,0.6526379 0.4021705,0.4021663 0.6526405,0.1516946 0.9913005,5e-7 1.3723005,5e-7 c 0.37747,0 0.71967,0.1516941 0.97014,0.4021658 0.25047,0.2504716 0.40217,0.5891376 0.40217,0.9701367 0,0.3774714 -0.1517,0.7196651 -0.40217,0.966609 -0.25047,0.2469439 -0.59267,0.4021658 -0.97014,0.4021658 z m 0,-2.0743288 c -0.19402,0 -0.37041,0.081139 -0.49741,0.2081385 -0.127,0.1269997 -0.20814,0.3033882 -0.20814,0.4974155 0,0.1940274 0.0811,0.3704159 0.20814,0.4974156 0.127,0.1269997 0.30339,0.2046107 0.49741,0.2046107 0.19403,0 0.37042,-0.077611 0.49742,-0.2046107 0.127,-0.1269997 0.20461,-0.3033882 0.20461,-0.4974156 0,-0.1940273 -0.0776,-0.3704158 -0.20461,-0.4974155 -0.127,-0.1269998 -0.30339,-0.2081385 -0.49742,-0.2081385 z"/>
   <path class="path-letter path-letter-P" d="m 2.0531605,0.8572486 c 0,0.2575273 -0.1023,0.52211 -0.29633,0.6738041 -0.15522,0.123472 -0.35983,0.1904996 -0.58561,0.1904996 h -0.50447 v 0.7302484 c 0,0.1058331 -0.0529,0.1587497 -0.15875,0.1587497 h -0.34925 C 0.0529205,2.6105504 5e-7,2.5576334 5e-7,2.4518007 V 0.1587502 C 5e-7,0.0529171 0.0529005,5e-7 0.1587505,5e-7 h 1.07244 c 0.22578,0 0.41275,0.067028 0.56445,0.1975551 0.0564,0.052917 0.12347,0.1375831 0.17286,0.2469439 0.0494,0.1128887 0.0847,0.2539995 0.0847,0.4127491 z m -0.64205,0 c 0,-0.1234719 -0.0741,-0.2151939 -0.2152,-0.2151939 h -0.52916 v 0.4374435 h 0.50447 c 0.12347,0 0.23989,-0.084666 0.23989,-0.2222496 z"/>
   <path class="path-letter path-letter-Q" d="m 2.3424405,2.9915495 c -0.0847,0.067028 -0.15875,0.056444 -0.22225,-0.024694 l -0.24694,-0.3174997 c -0.15875,0.059972 -0.32456,0.091722 -0.50095,0.091722 -0.381,0 -0.71966,-0.1552219 -0.97013,-0.4021658 C 0.1516905,2.0919681 5e-7,1.7497744 5e-7,1.372303 5e-7,0.9913039 0.1516905,0.6526379 0.4021705,0.4021663 0.6526405,0.1516946 0.9913005,5e-7 1.3723005,5e-7 c 0.37747,0 0.71967,0.1516941 0.97014,0.4021658 0.25047,0.2504716 0.40217,0.5891376 0.40217,0.9701367 0,0.338666 -0.11995,0.6491097 -0.32809,0.8889981 l 0.22931,0.2928049 c 0.0635,0.084667 0.0529,0.1587497 -0.0282,0.2257773 z m -1.06891,-1.1112476 c -0.067,-0.088194 -0.0564,-0.1622774 0.0247,-0.2257773 l 0.27516,-0.2151939 c 0.0882,-0.059972 0.16228,-0.052917 0.22578,0.028222 l 0.18697,0.2434162 c 0.06,-0.1023054 0.0882,-0.215194 0.0882,-0.338666 0,-0.1940273 -0.0776,-0.3704158 -0.20461,-0.4974155 -0.127,-0.1269998 -0.30339,-0.2081385 -0.49741,-0.2081385 -0.19403,0 -0.37042,0.081139 -0.49742,0.2081385 -0.127,0.1269997 -0.20814,0.3033882 -0.20814,0.4974155 0,0.1940274 0.0811,0.3704159 0.20814,0.4974156 0.127,0.1269997 0.30339,0.2046107 0.49742,0.2046107 0.0212,0 0.0388,0 0.0494,-0.00353 z"/>
   <path class="path-letter path-letter-R" d="m 2.0531605,0.8572486 c 0,0.2575273 -0.1023,0.52211 -0.29633,0.6738041 -0.0282,0.024694 -0.0529,0.038806 -0.0741,0.049389 -0.0247,0.010583 -0.0388,0.014111 -0.0423,0.017639 l 0.45861,0.8290259 c 0.067,0.1128887 0,0.1834441 -0.12347,0.1834441 h -0.38806 c -0.0952,0 -0.13758,-0.038805 -0.18344,-0.123472 l -0.41628,-0.8078596 h -0.32103 v 0.7725816 c 0,0.1058331 -0.0529,0.1587497 -0.15875,0.1587497 h -0.34925 C 0.0529205,2.6105504 5e-7,2.5576334 5e-7,2.4518007 V 0.1587502 C 5e-7,0.0529171 0.0529005,5e-7 0.1587505,5e-7 h 1.07244 c 0.22578,0 0.41275,0.067028 0.56445,0.1975551 0.0564,0.052917 0.12347,0.1375831 0.17286,0.2469439 0.0494,0.1128887 0.0847,0.2539995 0.0847,0.4127491 z m -0.64558,0 c 0,-0.1234719 -0.0706,-0.2151939 -0.21167,-0.2151939 h -0.52916 v 0.4374435 h 0.50447 c 0.12347,0 0.23636,-0.084666 0.23636,-0.2222496 z"/>
   <path class="path-letter path-letter-S" d="m 1.4774097,2.0531627 c 0.0423,-0.028222 0.0635,-0.067028 0.067,-0.1093609 0.003,-0.038806 -0.007,-0.074083 -0.0318,-0.098777 -0.0106,-0.010583 -0.0247,-0.021167 -0.0423,-0.035278 -0.0388,-0.024694 -0.10583,-0.059972 -0.22931,-0.09525 -0.0635,-0.017639 -0.14111,-0.035278 -0.23636,-0.052917 C 0.62010967,1.5804418 0.28143967,1.4322752 0.14385967,1.23472 c -0.0705,-0.1093608 -0.10583,-0.2257772 -0.11289,-0.3351381 -0.007,-0.1093609 0.004,-0.2116662 0.0318,-0.2928049 0.0564,-0.1834441 0.19756,-0.3351382 0.381,-0.4409713 C 0.62721967,0.0599726 0.85651967,5e-7 1.1069897,5e-7 c 0.21167,0 0.38806,0.035278 0.5327,0.077611 0.14111,0.045861 0.25752,0.1093608 0.34572,0.1658052 0.0882,0.056444 0.1023,0.1305274 0.0353,0.2187217 l -0.1905,0.2645827 c -0.0529,0.081139 -0.127,0.098778 -0.21872,0.045861 -0.127,-0.074083 -0.30692,-0.1481664 -0.50447,-0.1481664 -0.12700003,0 -0.21520003,0.028222 -0.27164003,0.059972 -0.0565,0.03175 -0.0847,0.074083 -0.0953,0.1023053 -0.0282,0.070555 0.004,0.1199442 0.067,0.1587497 0.0635,0.038806 0.15875,0.0635 0.27164003,0.088194 0.55033,0.1093609 0.84666,0.2539995 0.97719,0.4233324 0.13758,0.1799163 0.17286,0.3915825 0.13405,0.613832 -0.0247,0.169333 -0.11288,0.338666 -0.27869,0.4656657 -0.16581,0.1305275 -0.41275,0.215194 -0.75494,0.215194 h -0.0635 c -0.0247,0 -0.0459,0 -0.0706,-0.00353 -0.27164003,-0.014111 -0.58561003,-0.070555 -0.93839003,-0.2716383 -0.0952,-0.052917 -0.10936,-0.137583 -0.0423,-0.2222495 l 0.23636,-0.2963327 c 0.06,-0.081139 0.13406,-0.091722 0.22225,-0.038806 0.18345,0.1093609 0.32456,0.1587497 0.52564003,0.1834441 0.20108,0.024694 0.37747,0.00353 0.45155,-0.049389 z"/>
   <path class="path-letter path-letter-T" d="m 0.8607805,2.6105504 c -0.10584,0 -0.15875,-0.052917 -0.15875,-0.1587497 V 0.6667491 h -0.54328 C 0.0529205,0.6667491 5e-7,0.6138321 5e-7,0.5079994 V 0.1587502 C 5e-7,0.0529171 0.0529005,5e-7 0.1587505,5e-7 h 1.7533 c 0.10583,0 0.15875,0.052917 0.15875,0.1587497 v 0.3492492 c 0,0.1058331 -0.0529,0.1587497 -0.15875,0.1587497 h -0.54327 v 1.7850516 c 0,0.1058331 -0.0529,0.1587497 -0.15875,0.1587497 z"/>
   <path class="path-letter path-letter-U" d="m 2.4200505,1.3864141 c -0.004,0.3245549 -0.12347,0.6491097 -0.33161,0.8889981 -0.21167,0.2398884 -0.51153,0.398638 -0.87841,0.398638 -0.35278,0 -0.65264,-0.1446386 -0.86431,-0.3809992 C 0.1340605,2.0566905 0.0105805,1.7356634 5e-7,1.3864141 V 0.1587502 C 5e-7,0.0529171 0.0529005,5e-7 0.1587505,5e-7 h 0.34925 c 0.10583,0 0.15875,0.052917 0.15875,0.1587497 v 1.2276639 c 0,0.1834441 0.06,0.3421937 0.15875,0.4550824 0.0988,0.1164164 0.23283,0.183444 0.38453,0.183444 0.14463,0 0.28222,-0.067028 0.38099,-0.183444 0.0988,-0.1128887 0.15875,-0.2716383 0.15875,-0.4550824 V 0.1587502 c 0,-0.1058331 0.0529,-0.1587497 0.15875,-0.1587497 h 0.35278 c 0.10583,0 0.15875,0.052917 0.15875,0.1587497 z"/>
   <path class="path-letter path-letter-V" d="m 1.1701469,1.4851916 0.46919,-1.3581914 C 1.6710369,0.0423342 1.7310369,5e-7 1.8227869,5e-7 h 0.37747 c 0.11641,0 0.1658,0.070555 0.127,0.1799162 l -0.79375,2.3071616 c -0.0318,0.084666 -0.0952,0.1269998 -0.18345,0.1269998 H 0.99375689 c -0.0917,0 -0.15169,-0.042333 -0.18344,-0.1269998 l -0.79728,-2.3071616 c -0.0388,-0.1093608 0.0106,-0.1799162 0.127,-0.1799162 h 0.37747 c 0.0882,0 0.15169,0.042333 0.18344,0.1269997 z"/>
   <path class="path-letter path-letter-W" d="M 0.00596987,0.1728612 C -0.01873013,0.0635003 0.03416987,5e-7 0.14707987,5e-7 h 0.35983 c 0.0952,0 0.15522,0.045861 0.17639,0.1411108 l 0.24341,1.1465252 L 1.2406799,0.1340557 C 1.2653799,0.0458617 1.3217799,5e-7 1.4170699,5e-7 h 0.38453 c 0.0952,0 0.15169,0.045861 0.17639,0.1340552 L 2.2919598,1.280581 2.5353798,0.1411113 C 2.5565798,0.0458613 2.6164798,5e-7 2.7117698,5e-7 h 0.3563 c 0.11289,0 0.1658,0.0635 0.14111,0.1728607 l -0.50094,2.3001061 c -0.0212,0.09525 -0.0811,0.1411108 -0.17639,0.1411108 H 2.1226299 c -0.0952,0 -0.1517,-0.045861 -0.17639,-0.1340553 l -0.33514,-1.227664 -0.33514,1.227664 c -0.0282,0.088194 -0.0882,0.1340553 -0.17991,0.1340553 H 0.68682987 c -0.0952,0 -0.15523,-0.045861 -0.17639,-0.1411108 z"/>
   <path class="path-letter path-letter-X" d="m 1.2031303,0.7020268 0.40569,-0.5997209 C 1.6547203,0.0352779 1.7217103,5e-7 1.8028503,5e-7 h 0.45155 c 0.13053,0 0.17639,0.084666 0.10231,0.1940274 l -0.75142,1.1006642 0.762,1.1218309 c 0.0741,0.1093609 0.0282,0.1940274 -0.1023,0.1940274 h -0.45156 c -0.0811,0 -0.14816,-0.035278 -0.19403,-0.1023054 L 1.2031303,1.8908853 0.78332033,2.508245 c -0.0459,0.067028 -0.11289,0.1023054 -0.19402,0.1023054 h -0.45156 c -0.13053,0 -0.17639,-0.084666 -0.1023,-0.1940274 l 0.76199,-1.1218309 -0.75141,-1.1006642 C -0.02807967,0.084667 0.01782033,5e-7 0.14832033,5e-7 h 0.45156 c 0.0811,0 0.14817,0.035278 0.19403,0.1023054 z"/>
   <path class="path-letter path-letter-Y" d="m 0.94159856,2.6105504 c -0.10583,0 -0.15875,-0.052917 -0.15875,-0.1587497 V 1.3969975 l -0.75141,-1.2064974 C -0.03556144,0.0811392 0.00673856,5e-7 0.13726856,5e-7 h 0.41981 c 0.0811,0 0.14464,0.035278 0.1905,0.1058331 L 1.1144686,0.6949712 1.4813486,0.1058336 C 1.5272486,0.0352786 1.5907086,5e-7 1.6718486,5e-7 h 0.41981 c 0.13053,0 0.17639,0.081139 0.10583,0.1904996 l -0.74789,1.2064974 v 1.0548032 c 0,0.1058331 -0.0529,0.1587497 -0.15875,0.1587497 z"/>
   <path class="path-letter path-letter-Z" d="M 0.1587505,2.6105504 C 0.0529205,2.6105504 5e-7,2.5576334 5e-7,2.4518007 V 2.1766346 c 0,-0.081139 0.0141,-0.1305275 0.067,-0.1975551 l 0.97719,-1.3123304 h -0.83255 c -0.10583,0 -0.15875,-0.052917 -0.15875,-0.1587497 V 0.1587502 c 0,-0.1058331 0.0529,-0.1587497 0.15875,-0.1587497 h 1.51341 c 0.10584,0 0.15875,0.052917 0.15875,0.1587497 v 0.2716383 c 0,0.074083 -0.0212,0.137583 -0.0635,0.1975551 l -0.94897,1.3158582 h 0.90664 c 0.10583,0 0.15875,0.052917 0.15875,0.1587497 v 0.3492492 c 0,0.1058331 -0.0529,0.1587497 -0.15875,0.1587497 z"/>
</svg>